<?xml version="1.0" encoding="UTF-8" standalone="no"?>
<!-- Created with Inkscape (http://www.inkscape.org/) -->

<svg
   width="153.23045mm"
   height="61.749992mm"
   viewBox="0 0 153.23045 61.749992"
   version="1.1"
   id="svg5"
   inkscape:version="1.2.1 (9c6d41e410, 2022-07-14)"
   sodipodi:docname="bet-mates.svg"
   xml:space="preserve"
   xmlns:inkscape="http://www.inkscape.org/namespaces/inkscape"
   xmlns:sodipodi="http://sodipodi.sourceforge.net/DTD/sodipodi-0.dtd"
   xmlns:xlink="http://www.w3.org/1999/xlink"
   xmlns="http://www.w3.org/2000/svg"
   xmlns:svg="http://www.w3.org/2000/svg"><sodipodi:namedview
     id="namedview7"
     pagecolor="#ffffff"
     bordercolor="#999999"
     borderopacity="1"
     inkscape:showpageshadow="0"
     inkscape:pageopacity="0"
     inkscape:pagecheckerboard="0"
     inkscape:deskcolor="#d1d1d1"
     inkscape:document-units="mm"
     showgrid="false"
     borderlayer="false"
     showborder="false"
     shape-rendering="auto"
     inkscape:zoom="1"
     inkscape:cx="461"
     inkscape:cy="420.5"
     inkscape:current-layer="layer1" /><defs
     id="defs2"><inkscape:path-effect
       effect="perspective-envelope"
       up_left_point="64.069768,104.99301"
       up_right_point="219.94759,104.99301"
       down_left_point="47.760908,117.43288"
       down_right_point="236.25645,117.43288"
       id="path-effect41546"
       is_visible="true"
       lpeversion="1"
       deform_type="perspective"
       horizontal_mirror="false"
       vertical_mirror="true"
       overflow_perspective="false" /><linearGradient
       inkscape:collect="always"
       id="linearGradient23626"><stop
         style="stop-color:#9955ff;stop-opacity:1;"
         offset="0"
         id="stop23622" /><stop
         style="stop-color:#9955ff;stop-opacity:0;"
         offset="1"
         id="stop23624" /></linearGradient><inkscape:path-effect
       effect="perspective-envelope"
       up_left_point="64.069768,104.99301"
       up_right_point="219.94759,104.99301"
       down_left_point="47.760908,117.43288"
       down_right_point="236.25645,117.43288"
       id="path-effect16501"
       is_visible="true"
       lpeversion="1"
       deform_type="perspective"
       horizontal_mirror="false"
       vertical_mirror="true"
       overflow_perspective="false" /><linearGradient
       inkscape:collect="always"
       xlink:href="#linearGradient23626"
       id="linearGradient23628"
       x1="154.93312"
       y1="112.28838"
       x2="154.93312"
       y2="120.33907"
       gradientUnits="userSpaceOnUse"
       gradientTransform="matrix(1,0,0,0.86468307,-10.272222,11.564222)" /><linearGradient
       inkscape:collect="always"
       xlink:href="#linearGradient23626"
       id="linearGradient42033"
       gradientUnits="userSpaceOnUse"
       gradientTransform="matrix(1,0,0,0.86468307,-10.272222,11.564222)"
       x1="154.93312"
       y1="112.28838"
       x2="154.93312"
       y2="120.33907" /></defs><g
     inkscape:label="Layer 1"
     inkscape:groupmode="layer"
     id="layer1"
     transform="translate(-71.884771,-74.124994)"><g
       id="g41953"
       transform="translate(43.582033,34.037109)"
       inkscape:export-filename="g41953.svg"
       inkscape:export-xdpi="96"
       inkscape:export-ydpi="96"><path
         id="path41662"
         style="fill:#ffcd00;fill-opacity:1;stroke-width:0.279324"
         d="m 104.91797,40.087891 -7.154298,1.380859 c -1.026215,-0.446008 -2.31333,-0.914192 -3.839844,-0.884766 -0.331042,0.0065 -0.707518,0.03357 -1.117187,0.103516 -2.004544,0.342335 -4.121432,1.147087 -6.128907,2.921875 l -19.728515,3.806641 5.347656,18.945312 h -1.582031 -11.925782 -2.830078 -17.4375 v 4.566406 l -10.21875,9.50586 V 92.375 h 20.607422 1.941406 18.962891 0.242188 9.580078 l 1.367187,4.847656 23.914064,4.615234 23.91406,-4.615234 1.36719,-4.847656 h 9.6875 v -0.171875 l 0.10156,0.171875 h 19.38477 1.66992 20.49023 V 80.384766 l -10.21484,-9.185547 v -0.002 l -1.0332,-0.927735 -4.34375,-3.908203 h -17.92383 -1.8711 -8.60546 l 5.34765,-18.945312 -19.72656,-3.806641 C 121.15374,41.8339 119.03558,41.0298 117.03125,40.6875 c -0.41007,-0.07003 -0.78981,-0.09718 -1.11914,-0.103516 -0.13018,-0.0025 -0.26519,-0.0029 -0.40234,0.002 -1.36216,0.04785 -2.50991,0.473245 -3.44727,0.880859 z" /><g
         id="g41660"><g
           id="g41446"><g
             id="g41436"><path
               id="rect368"
               style="fill:#220055;fill-opacity:1;stroke-width:0.279324"
               d="m 69.716669,49.122361 35.201811,-6.793505 35.20181,6.793505 -13.03794,46.198053 -22.16387,4.277335 -22.163861,-4.277335 z"
               sodipodi:nodetypes="ccccccc" /><path
               style="fill:#8d61d1;fill-opacity:1;stroke-width:0.279324"
               d="m 110.72516,45.777635 23.42271,7.039707 -10.83228,38.382388 -14.7429,5.365137 16.69232,-3.22116 11.97983,-42.448861 z"
               id="path8409" /><path
               style="fill:#e2cdff;fill-opacity:1;stroke-width:0.279324"
               d="M 99.110852,45.777635 72.590706,50.894846 84.572417,93.343707 101.26333,96.564867 86.521362,91.19973 75.687667,52.817342 Z"
               id="path1227" /></g><g
             id="g302"
             transform="matrix(0.77529116,0,0,0.91432459,-6.3927587,-24.826682)"><path
               id="path16971"
               style="opacity:1;fill:#220055;fill-opacity:1;stroke:none;stroke-width:0.929883px;stroke-linejoin:round;stroke-opacity:0.6"
               d="m 60.768794,102.13809 v 3.63775 L 47.589106,116.1723 v 9.60609 H 71.331294 73.8352 96.936758 l 3.474612,-5.31307 v -0.081 h 0.0488 l 0.67188,-1.02681 v 6.42095 h 12.71484 l 4.25977,-10.05025 h 0.39648 l -0.38867,1.35613 v 8.69412 h 12.91016 l 0.87304,-4.55479 2.44727,1.79693 2.34765,-1.48449 v 4.24235 h 6.94141 3.74023 7.51368 l 1.32226,-4.52607 h 3.48438 l 3.43554,4.52607 h 10.06836 2.39844 10.24219 v -6.55774 l 4.58594,6.55774 h 23.38671 2.15235 23.59375 v -9.6348 l -12.75977,-9.73106 h -0.41601 v -0.3175 l -5.1875,-3.95694 h -22.0293 -2.41406 -16.53125 -2.50196 -16.95117 -2.60156 -9.05664 -4.27734 -3.13672 l -6.58594,3.92992 -5.70508,-3.92992 H 122.05197 119.09103 102.6633 99.456268 84.073451 80.42306 Z" /><path
               id="path16497"
               style="font-size:20.7036px;font-family:FalconsFont;-inkscape-font-specification:'FalconsFont, Normal';opacity:1;fill:#e2cdff;fill-opacity:1;stroke-width:0.367626"
               d="m 64.069768,104.99301 0.547305,1.61 -13.726674,10.82987 21.40589,0 4.727072,-4.87467 -0.934631,-1.9344 4.563921,-1.80822 2.373172,-2.44727 -0.888945,-1.37531 z m 19.65461,0 1.072853,1.59397 -10.165079,10.8459 20.379814,0 2.098648,-3.21022 -12.676564,0 1.829743,-2.18265 12.273698,0 1.813029,-2.77333 H 88.588719 l 1.565036,-1.86688 h 11.417225 l 0.80025,-1.22411 -1.2014,-1.18268 z m 19.032952,0 2.49205,2.39034 h 4.43687 l -5.2527,10.04953 7.1101,0 4.25877,-10.04953 h 6.30967 l 0.35953,-1.11745 -1.66785,-1.27289 z m 19.63394,0 2.13136,1.59397 -3.10684,10.8459 6.80951,0 1.36812,-7.1356 4.90362,3.60197 5.69525,-3.60197 -0.20016,7.1356 5.02356,0 1.54892,-3.91861 -0.57116,-8.52126 h -3.27163 l -7.75438,4.62559 -6.71709,-4.62559 z m 25.74107,0 2.8003,1.59397 -3.99726,10.8459 h 5.38224 l 1.32215,-4.52487 h 7.83546 l 3.43597,4.52487 7.38505,0 -9.35484,-10.9115 -3.06198,-1.52837 z m 13.33459,0 4.85318,2.39034 h 4.43634 l 4.67179,10.04953 h 7.11009 l -5.66572,-10.04953 6.31021,0 -0.70202,-1.05437 -3.05011,-1.33597 z m 19.55126,0 3.68205,1.59397 7.58525,10.8459 20.37918,0 -3.15516,-3.21022 -12.67655,0 -1.74233,-2.18265 12.27368,0 -2.72575,-2.77333 -11.7618,0 -1.49027,-1.86688 11.41721,0 -1.16815,-1.18853 -3.17192,-1.21826 z m 19.03294,0 4.19238,1.59397 5.55947,5.45303 h 13.06096 l 2.62931,2.16238 h -13.48568 l 3.29355,3.23049 20.95533,0 -10.70601,-8.1662 h -12.51622 l -2.09916,-1.88333 12.14631,0 -3.13378,-2.39034 z M 69.466312,107.3998 h 6.678053 l -1.987853,1.86688 h -6.879604 z m 85.807068,0 h 2.04643 l 2.0348,2.68143 h -4.87672 z m -91.248924,4.64021 7.179015,0 -2.324076,2.18265 -7.414656,0 z"
               inkscape:path-effect="#path-effect16501"
               inkscape:original-d="m 64.069768,104.99301 2.587956,1.84409 v 10.25798 h 17.701764 v -4.20695 l -2.56729,-1.84409 2.56729,-1.82577 v -2.64391 l -2.22261,-1.58135 z m 19.65461,0 2.56677,1.82621 v 10.27586 h 16.853242 v -2.70335 H 92.171408 v -1.98708 h 10.972982 v -2.72121 H 92.171408 v -1.96921 h 10.972982 v -1.35704 l -1.97456,-1.36418 z m 19.032952,0 3.91294,2.70334 h 4.26537 v 9.39873 h 5.87975 v -9.39873 h 6.06578 v -1.23728 l -2.0774,-1.46606 z m 19.63394,0 2.58796,1.82621 v 10.27586 h 5.63118 v -6.3732 l 4.86534,3.38343 4.86533,-3.38343 v 6.3732 h 4.15427 l 1.4981,-3.33428 v -8.76779 h -3.27163 l -7.24607,5.04878 -7.2254,-5.04878 z m 25.74107,0 2.56728,1.82621 -4.61677,10.27586 h 4.45089 l 1.73943,-3.88478 h 6.91483 l 1.76009,3.88478 h 6.10713 l -4.63848,-10.34914 -2.53731,-1.75293 z m 13.33459,0 3.91345,2.70334 h 4.26486 v 9.39873 h 5.87974 v -9.39873 h 6.0663 v -1.16623 l -2.16059,-1.53711 z m 19.55126,0 2.56728,1.82621 v 10.27586 h 16.85272 v -2.70335 h -10.97297 v -1.98708 h 10.97297 v -2.72121 h -10.97297 v -1.96921 h 10.97297 v -1.31682 l -1.97456,-1.4044 z m 19.03294,0 2.56729,1.82621 v 5.58543 h 11.67681 v 1.96921 h -11.67681 v 2.72122 h 17.32917 v -7.41164 h -11.6768 v -1.98709 h 11.6768 v -2.70334 z m -127.762225,2.72122 h 6.418213 v 1.96921 h -6.418213 z m 82.468355,0 h 1.9668 l 1.26297,2.79271 h -4.49223 z m -82.468355,4.69042 h 6.418213 v 1.98708 h -6.418213 z" /><path
               id="path19906"
               style="font-size:20.7036px;font-family:FalconsFont;-inkscape-font-specification:'FalconsFont, Normal';opacity:1;fill:url(#linearGradient42033);fill-opacity:1;stroke-width:0.367626"
               d="m 62.837527,108.9426 -9.883117,7.79731 h 18.968868 l 4.173388,-4.30349 -1.04283,-2.16135 3.359485,-1.33247 h -2.822567 l -1.081588,1.01655 h -9.183935 l 1.192175,-1.01655 z m 20.781161,0 -7.309115,7.79731 h 18.236615 l 1.19114,-1.82399 H 82.868346 l 2.986381,-3.56845 h 12.216821 l 0.90641,-1.38832 H 87.020547 l 0.852145,-1.01655 z m 26.131222,0 -4.07675,7.79731 h 5.31233 l 3.3042,-7.79731 z m 14.92209,0 -2.23346,7.79731 h 5.10977 l 1.48621,-7.76022 5.49786,4.03941 6.44612,-4.0765 h -3.46956 l -2.57607,1.53667 -2.23035,-1.53667 z m 16.35921,0 -0.22118,7.79731 h 3.63234 l 1.31258,-3.32224 -0.29921,-4.47507 z m 9.8733,0 -2.8758,7.79731 h 3.66593 l 1.3224,-4.52467 h 8.89041 l 3.43545,4.52467 h 5.3635 l -6.68538,-7.79731 h -4.57337 l 1.38958,1.83069 h -7.39076 l 0.5426,-1.83069 z m 21.44055,0 3.6251,7.79731 h 5.28701 l -4.39508,-7.79731 z m 14.93707,0 5.45341,7.79731 h 18.19941 l -1.79524,-1.82399 h -12.72635 l -2.84583,-3.56845 h 12.06645 l -1.36529,-1.38832 h -11.8122 l -0.81184,-1.01655 z m 20.43028,0 2.45101,2.40487 h 13.02143 l 4.31033,3.54789 h -13.71493 l 1.88103,1.84455 h 18.47845 l -8.89041,-6.78076 h -12.55479 l -1.13326,-1.01655 z m -144.01602,2.40487 h 9.332247 l -3.797185,3.56845 h -9.71827 z" /></g></g><g
           id="g41414"
           transform="matrix(1.0401501,0,0,1.0401501,-4.2123344,0.71803166)"><path
             id="path41049"
             style="fill:#220055;fill-opacity:1;stroke-width:0.0739607"
             d="m 94.388672,40.441406 c -0.234846,0.0046 -0.487913,0.02423 -0.757813,0.07031 -2.524381,0.431114 -5.026241,1.385724 -7.011718,4.820312 -2.923833,5.057785 -5.254511,15.933746 -0.136719,18.884766 3.449383,1.988971 7.693373,-0.984845 10.988281,-3.371094 3.031357,-2.195381 4.491157,-2.321777 7.449217,-2.320312 2.95524,-0.0017 4.4164,0.125282 7.44727,2.320312 3.29465,2.386065 7.53733,5.359845 10.98633,3.371094 5.1176,-2.950906 2.7892,-13.826747 -0.13477,-18.884766 -1.98548,-3.434592 -4.48736,-4.389201 -7.01172,-4.820312 -0.27029,-0.04616 -0.52623,-0.06582 -0.75976,-0.07031 -1.45241,-0.028 -2.77452,0.596192 -3.75391,1.076172 -3.38238,1.117066 -4.22587,1.124762 -6.77734,1.123047 -2.54844,0.0018 -3.39104,-0.006 -6.773442,-1.123047 -0.979396,-0.479979 -2.300867,-1.104183 -3.753906,-1.076172 z" /><path
             id="path21640"
             style="fill:#885dcc;fill-opacity:1;stroke-width:0.0739607"
             d="m 94.432338,42.639804 c -0.142953,0.0028 -0.286478,0.0157 -0.430866,0.04035 -2.182845,0.372787 -3.897916,1.018673 -5.478647,3.753108 -2.662297,4.605368 -4.352598,13.909255 -0.940347,15.876826 2.081382,1.200159 5.35089,-0.894662 8.596645,-3.245314 3.619217,-2.621127 5.669317,-2.740462 8.739357,-2.738941 3.07004,-0.0018 5.12014,0.117814 8.73936,2.738941 3.24575,2.350652 6.51526,4.445473 8.59664,3.245314 3.41226,-1.967571 1.72196,-11.271458 -0.94034,-15.876826 -1.58073,-2.734435 -3.29581,-3.380321 -5.47865,-3.753108 -0.14439,-0.02466 -0.28791,-0.0376 -0.43086,-0.04035 -1.00065,-0.01929 -1.97014,0.462672 -2.96428,0.951437 -3.64153,1.206932 -4.91776,1.24977 -7.52187,1.248018 -2.60411,0.0018 -3.88034,-0.04109 -7.521869,-1.248018 -0.994142,-0.488765 -1.963631,-0.970727 -2.964273,-0.951437 z" /><circle
             style="fill:#e2cdff;fill-opacity:1;stroke:none;stroke-width:0.0819971;stroke-opacity:1"
             id="circle23379"
             cx="111.29021"
             cy="56.67041"
             r="3.0643146" /><circle
             style="fill:#220055;fill-opacity:1;stroke:none;stroke-width:0.0470388;stroke-opacity:1"
             id="circle23381"
             cx="111.29021"
             cy="56.67041"
             r="1.7578892" /><circle
             style="fill:#e2cdff;fill-opacity:1;stroke:none;stroke-width:0.0819971;stroke-opacity:1"
             id="circle23514"
             cx="98.706879"
             cy="56.67041"
             r="3.0643146" /><circle
             style="fill:#220055;fill-opacity:1;stroke:none;stroke-width:0.0470388;stroke-opacity:1"
             id="circle23516"
             cx="98.706879"
             cy="56.67041"
             r="1.7578892" /><circle
             style="fill:#e2cdff;fill-opacity:1;stroke:none;stroke-width:0.0780888;stroke-opacity:1"
             id="path28747"
             cx="94.084808"
             cy="49.252281"
             r="4.0454612" /><path
             id="rect23608"
             style="fill:#220055;fill-opacity:1;stroke:none;stroke-width:0.0780567;stroke-opacity:1"
             d="m 94.084741,46.30387 c -0.412478,0 -0.744484,0.129089 -0.744484,0.289362 v 1.914564 h -1.914566 c -0.160273,0 -0.289362,0.332006 -0.289362,0.744486 0,0.412479 0.129089,0.744637 0.289362,0.744637 h 1.914566 v 1.914568 c 0,0.160275 0.332006,0.28921 0.744484,0.28921 0.412484,0 0.74464,-0.128935 0.74464,-0.28921 v -1.914568 h 1.914565 c 0.160274,0 0.289359,-0.332158 0.289359,-0.744637 0,-0.41248 -0.129085,-0.744486 -0.289359,-0.744486 h -1.914565 v -1.914564 c 0,-0.160273 -0.332156,-0.289362 -0.74464,-0.289362 z" /><circle
             style="fill:#e2cdff;fill-opacity:1;stroke:none;stroke-width:0.0780888;stroke-opacity:1"
             id="circle29477"
             cx="115.79031"
             cy="49.252281"
             r="4.0454612" /><circle
             style="fill:#220055;fill-opacity:1;stroke:none;stroke-width:0.0780888;stroke-opacity:1"
             id="path29531"
             cx="115.79031"
             cy="47.537022"
             r="0.81840581" /><circle
             style="fill:#220055;fill-opacity:1;stroke:none;stroke-width:0.0780888;stroke-opacity:1"
             id="circle29723"
             cx="115.79031"
             cy="50.967541"
             r="0.81840581" /><circle
             style="fill:#220055;fill-opacity:1;stroke:none;stroke-width:0.0780888;stroke-opacity:1"
             id="circle29725"
             cx="49.252281"
             cy="-117.50557"
             r="0.81840581"
             transform="rotate(90)" /><circle
             style="fill:#220055;fill-opacity:1;stroke:none;stroke-width:0.0780888;stroke-opacity:1"
             id="circle29727"
             cx="49.252281"
             cy="-114.07506"
             r="0.81840581"
             transform="rotate(90)" /><path
             style="fill:#e2cdff;fill-opacity:1;stroke-width:0.0731309"
             d="m 119.58862,45.961151 c 0.3104,0.354174 0.61479,0.778977 0.92045,1.29199 2.54384,4.269513 3.93462,12.624394 1.31075,14.092348 -0.94692,0.529759 -2.46247,0.03679 -4.27863,-0.981285 1.02298,0.358452 1.88325,0.414653 2.51661,0.04406 2.57389,-1.506056 1.70051,-9.196638 -0.46918,-14.447116 z"
             id="path34663" /><path
             style="fill:#e2cdff;fill-opacity:1;stroke-width:0.0731309"
             d="m 90.343035,45.95267 c -0.310406,0.354174 -0.614794,0.778977 -0.920455,1.291989 -2.543842,4.269514 -3.934623,12.624395 -1.310751,14.092349 0.946918,0.529759 2.462474,0.03679 4.278634,-0.981285 -1.022979,0.358452 -1.883255,0.414653 -2.516608,0.04406 -2.57389,-1.506056 -1.700515,-9.196637 0.46918,-14.447116 z"
             id="path36500" /><path
             style="fill:#e2cdff;fill-opacity:1;stroke-width:0.0739607"
             d="m 113.15638,44.390413 c -0.0881,0.04302 -0.16847,0.08081 -0.26055,0.126086 l -0.0638,0.03106 -0.0669,0.02239 c -3.73356,1.237436 -5.22594,1.302526 -7.84749,1.300758 -2.62015,0.0018 -4.11215,-0.06334 -7.84566,-1.300758 l -0.06685,-0.02239 -0.06381,-0.03106 c -0.09203,-0.04525 -0.17238,-0.08294 -0.260396,-0.125934 0.08566,0.07002 0.170932,0.139769 0.260396,0.213341 l 0.06381,0.05208 0.06685,0.03746 c 3.73351,2.069803 5.22551,2.178724 7.84566,2.175747 2.62155,0.0029 4.11393,-0.105917 7.84749,-2.175747 l 0.0669,-0.03746 0.0638,-0.05208 c 0.0895,-0.0736 0.17485,-0.143447 0.26055,-0.213493 z"
             id="path38328" /></g><g
           id="g41508"><g
             id="g41498"><path
               id="path41492"
               style="fill:#220055;fill-opacity:1;stroke-width:0.279324"
               d="m 69.716669,49.122361 35.201811,-6.793505 35.20181,6.793505 -13.03794,46.198053 -22.16387,4.277335 -22.163861,-4.277335 z"
               sodipodi:nodetypes="ccccccc" /><path
               style="fill:#8d61d1;fill-opacity:1;stroke-width:0.279324"
               d="m 110.72516,45.777635 23.42271,7.039707 -10.83228,38.382388 -14.7429,5.365137 16.69232,-3.22116 11.97983,-42.448861 z"
               id="path41494" /><path
               style="fill:#e2cdff;fill-opacity:1;stroke-width:0.279324"
               d="M 99.110852,45.777635 72.590706,50.894846 84.572417,93.343707 101.26333,96.564867 86.521362,91.19973 75.687667,52.817342 Z"
               id="path41496" /></g><g
             id="g41506"
             transform="matrix(0.77529116,0,0,0.91432459,-6.3927587,-24.826682)"><path
               id="path41500"
               style="opacity:1;fill:#220055;fill-opacity:1;stroke:none;stroke-width:0.929883px;stroke-linejoin:round;stroke-opacity:0.6"
               d="m 60.768794,102.13809 v 3.63775 L 47.589106,116.1723 v 9.60609 H 71.331294 73.8352 96.936758 l 3.474612,-5.31307 v -0.081 h 0.0488 l 0.67188,-1.02681 v 6.42095 h 12.71484 l 4.25977,-10.05025 h 0.39648 l -0.38867,1.35613 v 8.69412 h 12.91016 l 0.87304,-4.55479 2.44727,1.79693 2.34765,-1.48449 v 4.24235 h 6.94141 3.74023 7.51368 l 1.32226,-4.52607 h 3.48438 l 3.43554,4.52607 h 10.06836 2.39844 10.24219 v -6.55774 l 4.58594,6.55774 h 23.38671 2.15235 23.59375 v -9.6348 l -12.75977,-9.73106 h -0.41601 v -0.3175 l -5.1875,-3.95694 h -22.0293 -2.41406 -16.53125 -2.50196 -16.95117 -2.60156 -9.05664 -4.27734 -3.13672 l -6.58594,3.92992 -5.70508,-3.92992 H 122.05197 119.09103 102.6633 99.456268 84.073451 80.42306 Z" /><path
               id="path41502"
               style="font-size:20.7036px;font-family:FalconsFont;-inkscape-font-specification:'FalconsFont, Normal';opacity:1;fill:#e2cdff;fill-opacity:1;stroke-width:0.367626"
               d="m 64.069768,104.99301 0.547305,1.61 -13.726674,10.82987 21.40589,0 4.727072,-4.87467 -0.934631,-1.9344 4.563921,-1.80822 2.373172,-2.44727 -0.888945,-1.37531 z m 19.65461,0 1.072853,1.59397 -10.165079,10.8459 20.379814,0 2.098648,-3.21022 -12.676564,0 1.829743,-2.18265 12.273698,0 1.813029,-2.77333 H 88.588719 l 1.565036,-1.86688 h 11.417225 l 0.80025,-1.22411 -1.2014,-1.18268 z m 19.032952,0 2.49205,2.39034 h 4.43687 l -5.2527,10.04953 7.1101,0 4.25877,-10.04953 h 6.30967 l 0.35953,-1.11745 -1.66785,-1.27289 z m 19.63394,0 2.13136,1.59397 -3.10684,10.8459 6.80951,0 1.36812,-7.1356 4.90362,3.60197 5.69525,-3.60197 -0.20016,7.1356 5.02356,0 1.54892,-3.91861 -0.57116,-8.52126 h -3.27163 l -7.75438,4.62559 -6.71709,-4.62559 z m 25.74107,0 2.8003,1.59397 -3.99726,10.8459 h 5.38224 l 1.32215,-4.52487 h 7.83546 l 3.43597,4.52487 7.38505,0 -9.35484,-10.9115 -3.06198,-1.52837 z m 13.33459,0 4.85318,2.39034 h 4.43634 l 4.67179,10.04953 h 7.11009 l -5.66572,-10.04953 6.31021,0 -0.70202,-1.05437 -3.05011,-1.33597 z m 19.55126,0 3.68205,1.59397 7.58525,10.8459 20.37918,0 -3.15516,-3.21022 -12.67655,0 -1.74233,-2.18265 12.27368,0 -2.72575,-2.77333 -11.7618,0 -1.49027,-1.86688 11.41721,0 -1.16815,-1.18853 -3.17192,-1.21826 z m 19.03294,0 4.19238,1.59397 5.55947,5.45303 h 13.06096 l 2.62931,2.16238 h -13.48568 l 3.29355,3.23049 20.95533,0 -10.70601,-8.1662 h -12.51622 l -2.09916,-1.88333 12.14631,0 -3.13378,-2.39034 z M 69.466312,107.3998 h 6.678053 l -1.987853,1.86688 h -6.879604 z m 85.807068,0 h 2.04643 l 2.0348,2.68143 h -4.87672 z m -91.248924,4.64021 7.179015,0 -2.324076,2.18265 -7.414656,0 z"
               inkscape:path-effect="#path-effect41546"
               inkscape:original-d="m 64.069768,104.99301 2.587956,1.84409 v 10.25798 h 17.701764 v -4.20695 l -2.56729,-1.84409 2.56729,-1.82577 v -2.64391 l -2.22261,-1.58135 z m 19.65461,0 2.56677,1.82621 v 10.27586 h 16.853242 v -2.70335 H 92.171408 v -1.98708 h 10.972982 v -2.72121 H 92.171408 v -1.96921 h 10.972982 v -1.35704 l -1.97456,-1.36418 z m 19.032952,0 3.91294,2.70334 h 4.26537 v 9.39873 h 5.87975 v -9.39873 h 6.06578 v -1.23728 l -2.0774,-1.46606 z m 19.63394,0 2.58796,1.82621 v 10.27586 h 5.63118 v -6.3732 l 4.86534,3.38343 4.86533,-3.38343 v 6.3732 h 4.15427 l 1.4981,-3.33428 v -8.76779 h -3.27163 l -7.24607,5.04878 -7.2254,-5.04878 z m 25.74107,0 2.56728,1.82621 -4.61677,10.27586 h 4.45089 l 1.73943,-3.88478 h 6.91483 l 1.76009,3.88478 h 6.10713 l -4.63848,-10.34914 -2.53731,-1.75293 z m 13.33459,0 3.91345,2.70334 h 4.26486 v 9.39873 h 5.87974 v -9.39873 h 6.0663 v -1.16623 l -2.16059,-1.53711 z m 19.55126,0 2.56728,1.82621 v 10.27586 h 16.85272 v -2.70335 h -10.97297 v -1.98708 h 10.97297 v -2.72121 h -10.97297 v -1.96921 h 10.97297 v -1.31682 l -1.97456,-1.4044 z m 19.03294,0 2.56729,1.82621 v 5.58543 h 11.67681 v 1.96921 h -11.67681 v 2.72122 h 17.32917 v -7.41164 h -11.6768 v -1.98709 h 11.6768 v -2.70334 z m -127.762225,2.72122 h 6.418213 v 1.96921 h -6.418213 z m 82.468355,0 h 1.9668 l 1.26297,2.79271 h -4.49223 z m -82.468355,4.69042 h 6.418213 v 1.98708 h -6.418213 z" /><path
               id="path41504"
               style="font-size:20.7036px;font-family:FalconsFont;-inkscape-font-specification:'FalconsFont, Normal';opacity:1;fill:url(#linearGradient23628);fill-opacity:1;stroke-width:0.367626"
               d="m 62.837527,108.9426 -9.883117,7.79731 h 18.968868 l 4.173388,-4.30349 -1.04283,-2.16135 3.359485,-1.33247 h -2.822567 l -1.081588,1.01655 h -9.183935 l 1.192175,-1.01655 z m 20.781161,0 -7.309115,7.79731 h 18.236615 l 1.19114,-1.82399 H 82.868346 l 2.986381,-3.56845 h 12.216821 l 0.90641,-1.38832 H 87.020547 l 0.852145,-1.01655 z m 26.131222,0 -4.07675,7.79731 h 5.31233 l 3.3042,-7.79731 z m 14.92209,0 -2.23346,7.79731 h 5.10977 l 1.48621,-7.76022 5.49786,4.03941 6.44612,-4.0765 h -3.46956 l -2.57607,1.53667 -2.23035,-1.53667 z m 16.35921,0 -0.22118,7.79731 h 3.63234 l 1.31258,-3.32224 -0.29921,-4.47507 z m 9.8733,0 -2.8758,7.79731 h 3.66593 l 1.3224,-4.52467 h 8.89041 l 3.43545,4.52467 h 5.3635 l -6.68538,-7.79731 h -4.57337 l 1.38958,1.83069 h -7.39076 l 0.5426,-1.83069 z m 21.44055,0 3.6251,7.79731 h 5.28701 l -4.39508,-7.79731 z m 14.93707,0 5.45341,7.79731 h 18.19941 l -1.79524,-1.82399 h -12.72635 l -2.84583,-3.56845 h 12.06645 l -1.36529,-1.38832 h -11.8122 l -0.81184,-1.01655 z m 20.43028,0 2.45101,2.40487 h 13.02143 l 4.31033,3.54789 h -13.71493 l 1.88103,1.84455 h 18.47845 l -8.89041,-6.78076 h -12.55479 l -1.13326,-1.01655 z m -144.01602,2.40487 h 9.332247 l -3.797185,3.56845 h -9.71827 z" /></g></g><g
           id="g41542"
           transform="matrix(1.0401501,0,0,1.0401501,-4.2123344,0.71803166)"><path
             id="path41510"
             style="fill:#220055;fill-opacity:1;stroke-width:0.0739607"
             d="m 94.388672,40.441406 c -0.234846,0.0046 -0.487913,0.02423 -0.757813,0.07031 -2.524381,0.431114 -5.026241,1.385724 -7.011718,4.820312 -2.923833,5.057785 -5.254511,15.933746 -0.136719,18.884766 3.449383,1.988971 7.693373,-0.984845 10.988281,-3.371094 3.031357,-2.195381 4.491157,-2.321777 7.449217,-2.320312 2.95524,-0.0017 4.4164,0.125282 7.44727,2.320312 3.29465,2.386065 7.53733,5.359845 10.98633,3.371094 5.1176,-2.950906 2.7892,-13.826747 -0.13477,-18.884766 -1.98548,-3.434592 -4.48736,-4.389201 -7.01172,-4.820312 -0.27029,-0.04616 -0.52623,-0.06582 -0.75976,-0.07031 -1.45241,-0.028 -2.77452,0.596192 -3.75391,1.076172 -3.38238,1.117066 -4.22587,1.124762 -6.77734,1.123047 -2.54844,0.0018 -3.39104,-0.006 -6.773442,-1.123047 -0.979396,-0.479979 -2.300867,-1.104183 -3.753906,-1.076172 z" /><path
             id="path41512"
             style="fill:#885dcc;fill-opacity:1;stroke-width:0.0739607"
             d="m 94.432338,42.639804 c -0.142953,0.0028 -0.286478,0.0157 -0.430866,0.04035 -2.182845,0.372787 -3.897916,1.018673 -5.478647,3.753108 -2.662297,4.605368 -4.352598,13.909255 -0.940347,15.876826 2.081382,1.200159 5.35089,-0.894662 8.596645,-3.245314 3.619217,-2.621127 5.669317,-2.740462 8.739357,-2.738941 3.07004,-0.0018 5.12014,0.117814 8.73936,2.738941 3.24575,2.350652 6.51526,4.445473 8.59664,3.245314 3.41226,-1.967571 1.72196,-11.271458 -0.94034,-15.876826 -1.58073,-2.734435 -3.29581,-3.380321 -5.47865,-3.753108 -0.14439,-0.02466 -0.28791,-0.0376 -0.43086,-0.04035 -1.00065,-0.01929 -1.97014,0.462672 -2.96428,0.951437 -3.64153,1.206932 -4.91776,1.24977 -7.52187,1.248018 -2.60411,0.0018 -3.88034,-0.04109 -7.521869,-1.248018 -0.994142,-0.488765 -1.963631,-0.970727 -2.964273,-0.951437 z" /><circle
             style="fill:#e2cdff;fill-opacity:1;stroke:none;stroke-width:0.0819971;stroke-opacity:1"
             id="circle41514"
             cx="111.29021"
             cy="56.67041"
             r="3.0643146" /><circle
             style="fill:#220055;fill-opacity:1;stroke:none;stroke-width:0.0470388;stroke-opacity:1"
             id="circle41516"
             cx="111.29021"
             cy="56.67041"
             r="1.7578892" /><circle
             style="fill:#e2cdff;fill-opacity:1;stroke:none;stroke-width:0.0819971;stroke-opacity:1"
             id="circle41518"
             cx="98.706879"
             cy="56.67041"
             r="3.0643146" /><circle
             style="fill:#220055;fill-opacity:1;stroke:none;stroke-width:0.0470388;stroke-opacity:1"
             id="circle41520"
             cx="98.706879"
             cy="56.67041"
             r="1.7578892" /><circle
             style="fill:#e2cdff;fill-opacity:1;stroke:none;stroke-width:0.0780888;stroke-opacity:1"
             id="circle41522"
             cx="94.084808"
             cy="49.252281"
             r="4.0454612" /><path
             id="path41524"
             style="fill:#220055;fill-opacity:1;stroke:none;stroke-width:0.0780567;stroke-opacity:1"
             d="m 94.084741,46.30387 c -0.412478,0 -0.744484,0.129089 -0.744484,0.289362 v 1.914564 h -1.914566 c -0.160273,0 -0.289362,0.332006 -0.289362,0.744486 0,0.412479 0.129089,0.744637 0.289362,0.744637 h 1.914566 v 1.914568 c 0,0.160275 0.332006,0.28921 0.744484,0.28921 0.412484,0 0.74464,-0.128935 0.74464,-0.28921 v -1.914568 h 1.914565 c 0.160274,0 0.289359,-0.332158 0.289359,-0.744637 0,-0.41248 -0.129085,-0.744486 -0.289359,-0.744486 h -1.914565 v -1.914564 c 0,-0.160273 -0.332156,-0.289362 -0.74464,-0.289362 z" /><circle
             style="fill:#e2cdff;fill-opacity:1;stroke:none;stroke-width:0.0780888;stroke-opacity:1"
             id="circle41526"
             cx="115.79031"
             cy="49.252281"
             r="4.0454612" /><circle
             style="fill:#220055;fill-opacity:1;stroke:none;stroke-width:0.0780888;stroke-opacity:1"
             id="circle41528"
             cx="115.79031"
             cy="47.537022"
             r="0.81840581" /><circle
             style="fill:#220055;fill-opacity:1;stroke:none;stroke-width:0.0780888;stroke-opacity:1"
             id="circle41530"
             cx="115.79031"
             cy="50.967541"
             r="0.81840581" /><circle
             style="fill:#220055;fill-opacity:1;stroke:none;stroke-width:0.0780888;stroke-opacity:1"
             id="circle41532"
             cx="49.252281"
             cy="-117.50557"
             r="0.81840581"
             transform="rotate(90)" /><circle
             style="fill:#220055;fill-opacity:1;stroke:none;stroke-width:0.0780888;stroke-opacity:1"
             id="circle41534"
             cx="49.252281"
             cy="-114.07506"
             r="0.81840581"
             transform="rotate(90)" /><path
             style="fill:#e2cdff;fill-opacity:1;stroke-width:0.0731309"
             d="m 119.58862,45.961151 c 0.3104,0.354174 0.61479,0.778977 0.92045,1.29199 2.54384,4.269513 3.93462,12.624394 1.31075,14.092348 -0.94692,0.529759 -2.46247,0.03679 -4.27863,-0.981285 1.02298,0.358452 1.88325,0.414653 2.51661,0.04406 2.57389,-1.506056 1.70051,-9.196638 -0.46918,-14.447116 z"
             id="path41536" /><path
             style="fill:#e2cdff;fill-opacity:1;stroke-width:0.0731309"
             d="m 90.343035,45.95267 c -0.310406,0.354174 -0.614794,0.778977 -0.920455,1.291989 -2.543842,4.269514 -3.934623,12.624395 -1.310751,14.092349 0.946918,0.529759 2.462474,0.03679 4.278634,-0.981285 -1.022979,0.358452 -1.883255,0.414653 -2.516608,0.04406 -2.57389,-1.506056 -1.700515,-9.196637 0.46918,-14.447116 z"
             id="path41538" /><path
             style="fill:#e2cdff;fill-opacity:1;stroke-width:0.0739607"
             d="m 113.15638,44.390413 c -0.0881,0.04302 -0.16847,0.08081 -0.26055,0.126086 l -0.0638,0.03106 -0.0669,0.02239 c -3.73356,1.237436 -5.22594,1.302526 -7.84749,1.300758 -2.62015,0.0018 -4.11215,-0.06334 -7.84566,-1.300758 l -0.06685,-0.02239 -0.06381,-0.03106 c -0.09203,-0.04525 -0.17238,-0.08294 -0.260396,-0.125934 0.08566,0.07002 0.170932,0.139769 0.260396,0.213341 l 0.06381,0.05208 0.06685,0.03746 c 3.73351,2.069803 5.22551,2.178724 7.84566,2.175747 2.62155,0.0029 4.11393,-0.105917 7.84749,-2.175747 l 0.0669,-0.03746 0.0638,-0.05208 c 0.0895,-0.0736 0.17485,-0.143447 0.26055,-0.213493 z"
             id="path41540" /></g></g></g></g></svg>
